<?xml version="1.0" encoding="UTF-8" standalone="no"?>
<!-- Created with Inkscape (http://www.inkscape.org/) -->

<svg
   xmlns:dc="http://purl.org/dc/elements/1.1/"
   xmlns:cc="http://creativecommons.org/ns#"
   xmlns:rdf="http://www.w3.org/1999/02/22-rdf-syntax-ns#"
   xmlns:svg="http://www.w3.org/2000/svg"
   xmlns="http://www.w3.org/2000/svg"
   xmlns:sodipodi="http://sodipodi.sourceforge.net/DTD/sodipodi-0.dtd"
   xmlns:inkscape="http://www.inkscape.org/namespaces/inkscape"
   width="32"
   height="32"
   id="svg2993"
   version="1.1"
   inkscape:version="0.91 r13725"
   sodipodi:docname="iconOn32.svg"
   inkscape:export-filename="/home/zsolt/prog/TouchToSpeech/chrome/img/iconOn32.png"
   inkscape:export-xdpi="180"
   inkscape:export-ydpi="180">
  <defs
     id="defs2995" />
  <sodipodi:namedview
     id="base"
     pagecolor="#ffffff"
     bordercolor="#666666"
     borderopacity="1.0"
     inkscape:pageopacity="0.0"
     inkscape:pageshadow="2"
     inkscape:zoom="5.6568542"
     inkscape:cx="-29.161319"
     inkscape:cy="23.386884"
     inkscape:current-layer="layer1"
     showgrid="true"
     inkscape:document-units="px"
     inkscape:grid-bbox="true"
     inkscape:window-width="1280"
     inkscape:window-height="743"
     inkscape:window-x="0"
     inkscape:window-y="0"
     inkscape:window-maximized="1" />
  <metadata
     id="metadata2998">
    <rdf:RDF>
      <cc:Work
         rdf:about="">
        <dc:format>image/svg+xml</dc:format>
        <dc:type
           rdf:resource="http://purl.org/dc/dcmitype/StillImage" />
        <dc:title />
      </cc:Work>
    </rdf:RDF>
  </metadata>
  <g
     id="layer1"
     inkscape:label="Layer 1"
     inkscape:groupmode="layer"
     transform="translate(0,-32)">
    <path
       sodipodi:type="arc"
       style="fill:#00ff00;fill-opacity:1;stroke:#000000;stroke-width:2.81818174999999993;stroke-miterlimit:4;stroke-opacity:1;stroke-dasharray:none"
       id="path3001"
       sodipodi:cx="-50.363636"
       sodipodi:cy="8.181818"
       sodipodi:rx="11.272727"
       sodipodi:ry="11.272727"
       d="M -39.090909,8.181818 A 11.272727,11.272727 0 0 1 -50.363636,19.454545 11.272727,11.272727 0 0 1 -61.636363,8.181818 11.272727,11.272727 0 0 1 -50.363636,-3.090909 11.272727,11.272727 0 0 1 -39.090909,8.181818 Z"
       transform="matrix(0.70967745,0,0,0.70967745,51.741936,42.193548)" />
    <path
       sodipodi:type="arc"
       style="fill:none;stroke:#3c3c3c;stroke-width:2.19179535;stroke-miterlimit:4;stroke-opacity:1;stroke-dasharray:none"
       id="path3755"
       sodipodi:cx="-29.363636"
       sodipodi:cy="21.363636"
       sodipodi:rx="17.181818"
       sodipodi:ry="15.727273"
       d="M -12.181818,21.363636 A 17.181818,15.727273 0 0 1 -29.363636,37.090909 17.181818,15.727273 0 0 1 -46.545454,21.363636 17.181818,15.727273 0 0 1 -29.363636,5.636363 17.181818,15.727273 0 0 1 -12.181818,21.363636 Z"
       transform="matrix(0.87301588,0,0,0.95375721,41.634921,27.624278)" />
  </g>
</svg>
