<?xml version="1.0" encoding="UTF-8" standalone="no"?>
<!-- Created with Inkscape (http://www.inkscape.org/) -->

<svg
   xmlns:dc="http://purl.org/dc/elements/1.1/"
   xmlns:cc="http://creativecommons.org/ns#"
   xmlns:rdf="http://www.w3.org/1999/02/22-rdf-syntax-ns#"
   xmlns:svg="http://www.w3.org/2000/svg"
   xmlns="http://www.w3.org/2000/svg"
   xmlns:sodipodi="http://sodipodi.sourceforge.net/DTD/sodipodi-0.dtd"
   xmlns:inkscape="http://www.inkscape.org/namespaces/inkscape"
   width="64"
   height="64"
   id="svg3018"
   version="1.1"
   inkscape:version="0.91 r13725"
   sodipodi:docname="icon64.svg"
   inkscape:export-filename="/home/zsolt/prog/TouchToSpeech/chrome/img/icon64.png"
   inkscape:export-xdpi="180"
   inkscape:export-ydpi="180">
  <defs
     id="defs3020">
    <inkscape:path-effect
       effect="spiro"
       id="path-effect4138"
       is_visible="true" />
    <inkscape:path-effect
       effect="spiro"
       id="path-effect4138-1"
       is_visible="true" />
  </defs>
  <sodipodi:namedview
     id="base"
     pagecolor="#ffffff"
     bordercolor="#666666"
     borderopacity="1.0"
     inkscape:pageopacity="0.0"
     inkscape:pageshadow="2"
     inkscape:zoom="6.3407783"
     inkscape:cx="11.418593"
     inkscape:cy="35.04945"
     inkscape:current-layer="layer1"
     showgrid="true"
     inkscape:grid-bbox="true"
     inkscape:document-units="px"
     inkscape:window-width="1280"
     inkscape:window-height="743"
     inkscape:window-x="0"
     inkscape:window-y="0"
     inkscape:window-maximized="1" />
  <metadata
     id="metadata3023">
    <rdf:RDF>
      <cc:Work
         rdf:about="">
        <dc:format>image/svg+xml</dc:format>
        <dc:type
           rdf:resource="http://purl.org/dc/dcmitype/StillImage" />
        <dc:title />
      </cc:Work>
    </rdf:RDF>
  </metadata>
  <g
     id="layer1"
     inkscape:label="Layer 1"
     inkscape:groupmode="layer"
     transform="translate(0,16)">
    <path
       sodipodi:type="arc"
       style="fill:#00ff00;fill-opacity:1;stroke:#000000;stroke-width:2.81818175;stroke-miterlimit:4;stroke-opacity:1;stroke-dasharray:none"
       id="path3001"
       sodipodi:cx="-50.363636"
       sodipodi:cy="8.181818"
       sodipodi:rx="11.272727"
       sodipodi:ry="11.272727"
       d="M -39.090909,8.181818 A 11.272727,11.272727 0 0 1 -50.363636,19.454545 11.272727,11.272727 0 0 1 -61.636363,8.181818 11.272727,11.272727 0 0 1 -50.363636,-3.090909 11.272727,11.272727 0 0 1 -39.090909,8.181818 Z"
       transform="matrix(0.70967745,0,0,0.70967745,67.741927,10.193555)" />
    <path
       sodipodi:type="arc"
       style="fill:none;stroke:#3c3c3c;stroke-width:3.27083468;stroke-linecap:round;stroke-miterlimit:4;stroke-opacity:1;stroke-dasharray:none"
       id="path3803"
       sodipodi:cx="-64.237923"
       sodipodi:cy="36.639404"
       sodipodi:rx="26.646841"
       sodipodi:ry="25.695168"
       d="M -37.591082,36.639404 A 26.646841,25.695168 0 0 1 -64.237923,62.334572 26.646841,25.695168 0 0 1 -90.884764,36.639404 26.646841,25.695168 0 0 1 -64.237923,10.944237 26.646841,25.695168 0 0 1 -37.591082,36.639404 Z"
       transform="matrix(0.6004464,0,0,0.6226852,70.571424,-6.814809)" />
    <path
       sodipodi:type="arc"
       style="fill:none;stroke:#787878;stroke-width:2.18055654;stroke-linecap:round;stroke-miterlimit:4;stroke-opacity:1;stroke-dasharray:none"
       id="path3803-8"
       sodipodi:cx="-64.237923"
       sodipodi:cy="36.639404"
       sodipodi:rx="26.646841"
       sodipodi:ry="25.695168"
       d="M -37.591082,36.639404 A 26.646841,25.695168 0 0 1 -64.237923,62.334572 26.646841,25.695168 0 0 1 -90.884764,36.639404 26.646841,25.695168 0 0 1 -64.237923,10.944237 26.646841,25.695168 0 0 1 -37.591082,36.639404 Z"
       transform="matrix(0.9006696,0,0,0.93402775,89.857144,-18.222213)" />
    <path
       sodipodi:type="arc"
       style="fill:none;stroke:#b4b4b4;stroke-width:1.68817282;stroke-miterlimit:4;stroke-opacity:1;stroke-dasharray:none"
       id="path3803-8-0"
       sodipodi:cx="-64.237923"
       sodipodi:cy="36.639404"
       sodipodi:rx="26.646841"
       sodipodi:ry="25.695168"
       d="M -37.591082,36.639404 A 26.646841,25.695168 0 0 1 -64.237923,62.334572 26.646841,25.695168 0 0 1 -90.884764,36.639404 26.646841,25.695168 0 0 1 -64.237923,10.944237 26.646841,25.695168 0 0 1 -37.591082,36.639404 Z"
       transform="matrix(1.1633649,0,0,1.2064525,106.73214,-28.2037)" />
    <path
       style="fill:#ffffff;fill-opacity:1;fill-rule:evenodd;stroke:#000000;stroke-width:1.98000002;stroke-linecap:butt;stroke-linejoin:miter;stroke-miterlimit:4;stroke-dasharray:none;stroke-opacity:1"
       d="m 44.747466,32.730696 -4.666904,-4.666904 -2.333452,4.200214 -6.066976,-16.334167 16.334166,6.066977 -4.200214,2.333452 4.666904,4.666904 -3.733524,3.733524 z"
       id="path4136"
       inkscape:path-effect="#path-effect4138-1"
       inkscape:original-d="M 44.747466,32.730696 40.080562,28.063792 37.74711,32.264006 31.680134,15.929839 48.0143,21.996816 43.814086,24.330268 48.48099,28.997172 Z"
       inkscape:connector-curvature="0"
       sodipodi:nodetypes="cccccccc" />
  </g>
</svg>
