<?xml version="1.0" encoding="UTF-8" standalone="no"?>
<!-- Created with Inkscape (http://www.inkscape.org/) -->

<svg
   xmlns:dc="http://purl.org/dc/elements/1.1/"
   xmlns:cc="http://creativecommons.org/ns#"
   xmlns:rdf="http://www.w3.org/1999/02/22-rdf-syntax-ns#"
   xmlns:svg="http://www.w3.org/2000/svg"
   xmlns="http://www.w3.org/2000/svg"
   xmlns:sodipodi="http://sodipodi.sourceforge.net/DTD/sodipodi-0.dtd"
   xmlns:inkscape="http://www.inkscape.org/namespaces/inkscape"
   width="64px"
   height="64px"
   id="svg2993"
   version="1.1"
   inkscape:version="0.48.4 r9939"
   sodipodi:docname="icon64.svg"
   inkscape:export-filename="/home/zsolt/prog/WebTextToSpeech/chrome/icon64.png"
   inkscape:export-xdpi="90"
   inkscape:export-ydpi="90">
  <defs
     id="defs2995" />
  <sodipodi:namedview
     id="base"
     pagecolor="#ffffff"
     bordercolor="#666666"
     borderopacity="1.0"
     inkscape:pageopacity="0.0"
     inkscape:pageshadow="2"
     inkscape:zoom="5.5"
     inkscape:cx="2.2727273"
     inkscape:cy="32"
     inkscape:current-layer="layer1"
     showgrid="true"
     inkscape:document-units="px"
     inkscape:grid-bbox="true"
     inkscape:window-width="1280"
     inkscape:window-height="746"
     inkscape:window-x="-2"
     inkscape:window-y="-3"
     inkscape:window-maximized="1" />
  <metadata
     id="metadata2998">
    <rdf:RDF>
      <cc:Work
         rdf:about="">
        <dc:format>image/svg+xml</dc:format>
        <dc:type
           rdf:resource="http://purl.org/dc/dcmitype/StillImage" />
        <dc:title></dc:title>
      </cc:Work>
    </rdf:RDF>
  </metadata>
  <g
     id="layer1"
     inkscape:label="Layer 1"
     inkscape:groupmode="layer">
    <path
       sodipodi:type="arc"
       style="fill:#00ff00;fill-opacity:1;stroke:none"
       id="path3001-7"
       sodipodi:cx="-50.363636"
       sodipodi:cy="8.181818"
       sodipodi:rx="11.272727"
       sodipodi:ry="11.272727"
       d="m -39.090909,8.181818 a 11.272727,11.272727 0 1 1 -22.545454,0 11.272727,11.272727 0 1 1 22.545454,0 z"
       transform="matrix(1.4193549,0,0,1.4193549,87.483874,36.387096)" />
    <path
       sodipodi:type="arc"
       style="fill:#0000ff;fill-opacity:1;stroke:none"
       id="path3001-7-5"
       sodipodi:cx="-50.363636"
       sodipodi:cy="8.181818"
       sodipodi:rx="11.272727"
       sodipodi:ry="11.272727"
       d="m -39.090909,8.181818 a 11.272727,11.272727 0 1 1 -22.545454,0 11.272727,11.272727 0 1 1 22.545454,0 z"
       transform="matrix(1.4193549,0,0,1.4193549,87.483874,4.3870962)" />
    <path
       sodipodi:type="arc"
       style="fill:#ff0000;fill-opacity:1;stroke:none"
       id="path3001-7-5-4"
       sodipodi:cx="-50.363636"
       sodipodi:cy="8.181818"
       sodipodi:rx="11.272727"
       sodipodi:ry="11.272727"
       d="m -39.090909,8.181818 a 11.272727,11.272727 0 1 1 -22.545454,0 11.272727,11.272727 0 1 1 22.545454,0 z"
       transform="matrix(1.4193549,0,0,1.4193549,119.48387,4.3870962)" />
    <path
       sodipodi:type="arc"
       style="fill:#ff00ff;fill-opacity:1;stroke:none"
       id="path3001-7-5-4-6"
       sodipodi:cx="-50.363636"
       sodipodi:cy="8.181818"
       sodipodi:rx="11.272727"
       sodipodi:ry="11.272727"
       d="m -39.090909,8.181818 a 11.272727,11.272727 0 1 1 -22.545454,0 11.272727,11.272727 0 1 1 22.545454,0 z"
       transform="matrix(1.4193549,0,0,1.4193549,119.48387,36.387096)" />
    <path
       sodipodi:type="arc"
       style="fill:#ffff00;fill-opacity:1;stroke:#000000;stroke-opacity:1;stroke-width:0.70454541999999998;stroke-miterlimit:4;stroke-dasharray:none"
       id="path3001"
       sodipodi:cx="-50.363636"
       sodipodi:cy="8.181818"
       sodipodi:rx="11.272727"
       sodipodi:ry="11.272727"
       d="m -39.090909,8.181818 a 11.272727,11.272727 0 1 1 -22.545454,0 11.272727,11.272727 0 1 1 22.545454,0 z"
       transform="matrix(1.4193549,0,0,1.4193549,103.48387,20.387096)" />
  </g>
</svg>
